#!OML:ASF F:\VICON\USERDATA\INSTALL\rory3\rory3.ASF
:FULLY-SPECIFIED
:DEGREES
241
root -0.166118 16.5371 13.3702 -160.948 -12.3763 -180.542
lowerback -1.87421 -1.86219 1.82115
upperback -4.27396 -2.65628 0.83161
thorax -3.38581 -1.4539 -0.127528
lowerneck -19.1546 0.300069 -1.24987
upperneck 35.2009 -2.76575 2.4326
head 15.7115 -1.8632 0.48972
rclavicle 3.85145e-015 7.35503e-015
rhumerus -174.739 -27.8691 157.261
rradius 14.3219
rwrist 56.6633
rhand -35.4659 25.3695
rfingers 7.12502
rthumb -8.59444 -4.43557
lclavicle 3.85145e-015 7.35503e-015
lhumerus 22.4052 73.5079 59.7458
lradius 13.8218
lwrist -22.0884
lhand -22.1108 31.962
lfingers 7.12502
lthumb 4.30178 61.8983
rfemur -56.6085 1.20027 22.0765
rtibia 43.091
rfoot -8.33046 -28.9332
rtoes 33.3824
lfemur -13.3734 -1.47304 -23.3071
ltibia 45.8653
lfoot -8.64442 18.9968
ltoes -29.2802
242
root -0.147865 16.5361 13.2365 -159.995 -10.6761 -179.799
lowerback -2.65297 -1.14789 2.11644
upperback -4.58504 -1.76455 0.840262
thorax -3.26337 -1.03974 -0.30919
lowerneck -19.1508 0.290724 -1.30759
upperneck 35.0944 -2.69389 2.36789
head 15.6554 -1.84063 0.488675
rclavicle 2.21148e-014 2.18663e-015
rhumerus -174.924 -27.1384 155.256
rradius 14.238
rwrist 55.5269
rhand -35.7457 25.1091
rfingers 7.12502
rthumb -8.86443 -4.68471
lclavicle 2.21148e-014 2.18663e-015
lhumerus 21.2011 72.9975 60.7005
lradius 13.8332
lwrist -19.7498
lhand -23.2261 31.6981
lfingers 7.12502
lthumb 3.22477 61.6534
rfemur -57.8745 2.08741 23.1325
rtibia 43.6709
rfoot -7.50773 -27.967
rtoes 32.527
lfemur -16.7339 0.745289 -23.0619
ltibia 49.2863
lfoot -3.24101 21.3477
ltoes -22.8548
243
root -0.106617 16.5366 13.0675 -159.902 -9.76995 -179.809
lowerback -2.83799 -0.870724 1.47193
upperback -4.52981 -1.39452 0.838384
thorax -3.07749 -0.832235 0.0422776
lowerneck -19.0017 0.27864 -1.41822
upperneck 34.8897 -2.58383 2.26479
head 15.5162 -1.81501 0.489417
rclavicle 1.49089e-015 -3.37934e-015
rhumerus -175.041 -28.3782 152.827
rradius 14.0592
rwrist 52.7196
rhand -35.3677 24.5455
rfingers 7.12502
rthumb -8.49965 -5.26341
lclavicle 1.49089e-015 -3.37934e-015
lhumerus 24.5585 74.8371 66.3403
lradius 13.403
lwrist -19.9802
lhand -23.9218 31.0721
lfingers 7.12502
lthumb 2.55292 61.0366
rfemur -57.9601 3.19565 22.9925
rtibia 44.4817
rfoot -7.83021 -27.9841
rtoes 32.1113
lfemur -18.8777 2.28604 -23.1861
ltibia 52.6134
lfoot -4.38945 19.9044
ltoes -26.5485
244
root -0.0954449 16.5461 12.9044 -160.388 -10.2181 -179.923
lowerback -1.99059 -1.03577 1.51296
upperback -4.64738 -1.58887 0.827624
thorax -3.68056 -0.930568 0.0318624
lowerneck -18.7453 0.290396 -1.50652
upperneck 34.9682 -2.57585 2.23522
head 15.4938 -1.84685 0.491429
rclavicle -2.68608e-014 1.39149e-015
rhumerus -175.051 -30.3966 150.221
rradius 13.8414
rwrist 49.6366
rhand -34.7444 23.6996
rfingers 7.12502
rthumb -7.89803 -6.13285
lclavicle -2.68608e-014 1.39149e-015
lhumerus 24.266 75.271 68.4575
lradius 13.1723
lwrist -18.8464
lhand -24.8196 30.9986
lfingers 7.12502
lthumb 1.68581 60.9717
rfemur -57.1163 2.51546 23.3549
rtibia 45.2501
rfoot -8.09244 -27.3498
rtoes 31.0885
lfemur -20.4978 2.49474 -23.0539
ltibia 55.9695
lfoot -5.05703 18.8227
ltoes -26.1483
245
root -0.0614387 16.5541 12.7408 -160.647 -10.3093 -180.06
lowerback -1.73622 -1.0713 1.15941
upperback -4.58162 -1.62324 0.748936
thorax -3.74838 -0.931123 0.153814
lowerneck -18.4765 0.272053 -1.53088
upperneck 34.8625 -2.64335 2.34288
head 15.384 -1.86894 0.530365
rclavicle 3.37934e-015 1.39149e-014
rhumerus -175.115 -32.963 147.326
rradius 13.6047
rwrist 45.7505
rhand -34.3299 22.579
rfingers 7.12502
rthumb -7.49804 -7.26809
lclavicle 3.37934e-015 1.39149e-014
lhumerus 23.5031 74.612 70.0764
lradius 13.1227
lwrist -16.3199
lhand -25.8927 30.8742
lfingers 7.12502
lthumb 0.649365 60.8529
rfemur -56.5787 3.15002 22.9333
rtibia 46.0119
rfoot -9.21554 -27.3215
rtoes 31.3186
lfemur -22.5421 2.69942 -22.972
ltibia 58.8749
lfoot -5.44759 17.775
ltoes -23.7198
